<?xml version="1.0" encoding="UTF-8" ?>
<svg version="1.1" width="32" height="32" xmlns="http://www.w3.org/2000/svg" shape-rendering="crispEdges">
<rect x="14" y="7" width="1" height="2" fill="#CF573C" />
<rect x="15" y="8" width="1" height="1" fill="#DA863E" />
<rect x="13" y="9" width="1" height="2" fill="#CF573C" />
<rect x="14" y="9" width="1" height="2" fill="#DA863E" />
<rect x="15" y="9" width="2" height="2" fill="#E8C170" />
<rect x="17" y="9" width="1" height="3" fill="#DA863E" />
<rect x="21" y="9" width="3" height="1" fill="#CF573C" />
<rect x="18" y="10" width="1" height="2" fill="#DA863E" />
<rect x="21" y="10" width="1" height="1" fill="#CF573C" />
<rect x="22" y="10" width="3" height="1" fill="#DA863E" />
<rect x="10" y="11" width="1" height="1" fill="#DA863E" />
<rect x="11" y="11" width="2" height="1" fill="#E8C170" />
<rect x="16" y="11" width="1" height="2" fill="#DA863E" />
<rect x="19" y="11" width="3" height="1" fill="#DA863E" />
<rect x="22" y="11" width="2" height="1" fill="#E8C170" />
<rect x="24" y="11" width="1" height="3" fill="#DA863E" />
<rect x="25" y="11" width="1" height="1" fill="#CF573C" />
<rect x="9" y="12" width="1" height="1" fill="#DA863E" />
<rect x="10" y="12" width="2" height="1" fill="#E8C170" />
<rect x="17" y="12" width="1" height="2" fill="#E7D5B3" />
<rect x="18" y="12" width="5" height="1" fill="#E8C170" />
<rect x="23" y="12" width="1" height="1" fill="#E7D5B3" />
<rect x="25" y="12" width="1" height="3" fill="#DA863E" />
<rect x="11" y="13" width="1" height="1" fill="#E8C170" />
<rect x="16" y="13" width="1" height="2" fill="#E8C170" />
<rect x="18" y="13" width="3" height="2" fill="#E7D5B3" />
<rect x="21" y="13" width="1" height="1" fill="#E8C170" />
<rect x="22" y="13" width="1" height="1" fill="#E7D5B3" />
<rect x="23" y="13" width="1" height="2" fill="#E8C170" />
<rect x="17" y="14" width="1" height="2" fill="#E8C170" />
<rect x="21" y="14" width="1" height="1" fill="#E7D5B3" />
<rect x="22" y="14" width="1" height="2" fill="#E8C170" />
<rect x="24" y="14" width="1" height="1" fill="#E8C170" />
<rect x="11" y="15" width="1" height="1" fill="#CF573C" />
<rect x="12" y="15" width="2" height="1" fill="#DA863E" />
<rect x="14" y="15" width="1" height="1" fill="#E8C170" />
<rect x="15" y="15" width="2" height="1" fill="#DA863E" />
<rect x="18" y="15" width="1" height="1" fill="#E7D5B3" />
<rect x="19" y="15" width="3" height="1" fill="#E8C170" />
<rect x="23" y="15" width="2" height="1" fill="#DA863E" />
<rect x="25" y="15" width="1" height="1" fill="#CF573C" />
<rect x="9" y="16" width="2" height="1" fill="#CF573C" />
<rect x="11" y="16" width="1" height="1" fill="#DA863E" />
<rect x="12" y="16" width="2" height="1" fill="#E8C170" />
<rect x="14" y="16" width="1" height="2" fill="#E7D5B3" />
<rect x="15" y="16" width="1" height="3" fill="#E8C170" />
<rect x="16" y="16" width="2" height="1" fill="#DA863E" />
<rect x="18" y="16" width="2" height="1" fill="#E8C170" />
<rect x="20" y="16" width="4" height="1" fill="#DA863E" />
<rect x="24" y="16" width="1" height="1" fill="#CF573C" />
<rect x="8" y="17" width="1" height="1" fill="#CF573C" />
<rect x="9" y="17" width="1" height="1" fill="#DA863E" />
<rect x="10" y="17" width="1" height="1" fill="#E8C170" />
<rect x="11" y="17" width="3" height="1" fill="#E7D5B3" />
<rect x="16" y="17" width="1" height="1" fill="#E8C170" />
<rect x="17" y="17" width="1" height="1" fill="#DA863E" />
<rect x="20" y="17" width="2" height="1" fill="#DA863E" />
<rect x="22" y="17" width="1" height="2" fill="#E8C170" />
<rect x="23" y="17" width="1" height="1" fill="#DA863E" />
<rect x="7" y="18" width="1" height="1" fill="#CF573C" />
<rect x="8" y="18" width="1" height="1" fill="#DA863E" />
<rect x="9" y="18" width="1" height="3" fill="#E8C170" />
<rect x="10" y="18" width="3" height="2" fill="#E7D5B3" />
<rect x="13" y="18" width="2" height="1" fill="#E8C170" />
<rect x="20" y="18" width="2" height="2" fill="#E8C170" />
<rect x="23" y="18" width="1" height="1" fill="#CF573C" />
<rect x="6" y="19" width="1" height="2" fill="#CF573C" />
<rect x="7" y="19" width="1" height="2" fill="#DA863E" />
<rect x="8" y="19" width="1" height="1" fill="#E8C170" />
<rect x="13" y="19" width="1" height="2" fill="#E8C170" />
<rect x="14" y="19" width="1" height="5" fill="#DA863E" />
<rect x="18" y="19" width="2" height="2" fill="#E8C170" />
<rect x="22" y="19" width="1" height="5" fill="#DA863E" />
<rect x="8" y="20" width="1" height="2" fill="#DA863E" />
<rect x="10" y="20" width="1" height="2" fill="#E8C170" />
<rect x="11" y="20" width="1" height="1" fill="#E7D5B3" />
<rect x="12" y="20" width="1" height="1" fill="#E8C170" />
<rect x="17" y="20" width="1" height="1" fill="#DA863E" />
<rect x="20" y="20" width="1" height="2" fill="#E7D5B3" />
<rect x="21" y="20" width="1" height="3" fill="#E8C170" />
<rect x="7" y="21" width="1" height="1" fill="#CF573C" />
<rect x="9" y="21" width="1" height="2" fill="#DA863E" />
<rect x="11" y="21" width="1" height="2" fill="#E8C170" />
<rect x="12" y="21" width="1" height="1" fill="#E7D5B3" />
<rect x="13" y="21" width="1" height="3" fill="#DA863E" />
<rect x="18" y="21" width="1" height="1" fill="#E8C170" />
<rect x="19" y="21" width="1" height="2" fill="#E7D5B3" />
<rect x="8" y="22" width="1" height="1" fill="#CF573C" />
<rect x="10" y="22" width="1" height="2" fill="#DA863E" />
<rect x="12" y="22" width="1" height="1" fill="#E8C170" />
<rect x="15" y="22" width="1" height="3" fill="#DA863E" />
<rect x="18" y="22" width="1" height="2" fill="#DA863E" />
<rect x="20" y="22" width="1" height="2" fill="#E8C170" />
<rect x="11" y="23" width="2" height="1" fill="#DA863E" />
<rect x="16" y="23" width="1" height="1" fill="#DA863E" />
<rect x="19" y="23" width="1" height="4" fill="#DA863E" />
<rect x="21" y="23" width="1" height="2" fill="#DA863E" />
<rect x="16" y="24" width="1" height="1" fill="#E8C170" />
<rect x="20" y="24" width="1" height="2" fill="#DA863E" />
<rect x="15" y="25" width="1" height="3" fill="#E8C170" />
<rect x="16" y="25" width="1" height="2" fill="#E7D5B3" />
<rect x="17" y="25" width="1" height="2" fill="#E8C170" />
<rect x="14" y="26" width="1" height="2" fill="#DA863E" />
<rect x="11" y="27" width="2" height="1" fill="#CF573C" />
<rect x="13" y="27" width="1" height="1" fill="#DA863E" />
<rect x="16" y="27" width="1" height="1" fill="#E8C170" />
</svg>