<?xml version="1.0" encoding="UTF-8" ?>
<svg version="1.1" width="48" height="48" xmlns="http://www.w3.org/2000/svg" shape-rendering="crispEdges">
<rect x="18" y="18" width="5" height="2" fill="#14181E" />
<rect x="17" y="19" width="1" height="3" fill="#14181E" />
<rect x="23" y="19" width="1" height="3" fill="#14181E" />
<rect x="16" y="20" width="1" height="3" fill="#14181E" />
<rect x="18" y="20" width="1" height="1" fill="#14181E" />
<rect x="19" y="20" width="1" height="1" fill="#3B1725" />
<rect x="20" y="20" width="1" height="2" fill="#73172D" />
<rect x="21" y="20" width="1" height="1" fill="#3B1725" />
<rect x="22" y="20" width="1" height="1" fill="#14181E" />
<rect x="24" y="20" width="1" height="8" fill="#14181E" />
<rect x="15" y="21" width="1" height="3" fill="#14181E" />
<rect x="18" y="21" width="2" height="1" fill="#73172D" />
<rect x="21" y="21" width="1" height="1" fill="#73172D" />
<rect x="22" y="21" width="1" height="1" fill="#3B1725" />
<rect x="25" y="21" width="1" height="8" fill="#14181E" />
<rect x="14" y="22" width="1" height="8" fill="#14181E" />
<rect x="17" y="22" width="2" height="1" fill="#73172D" />
<rect x="19" y="22" width="3" height="5" fill="#3B1725" />
<rect x="22" y="22" width="1" height="5" fill="#73172D" />
<rect x="23" y="22" width="1" height="1" fill="#3B1725" />
<rect x="13" y="23" width="1" height="6" fill="#14181E" />
<rect x="16" y="23" width="2" height="9" fill="#73172D" />
<rect x="18" y="23" width="1" height="3" fill="#3B1725" />
<rect x="23" y="23" width="1" height="3" fill="#73172D" />
<rect x="15" y="24" width="1" height="7" fill="#73172D" />
<rect x="18" y="26" width="1" height="1" fill="#73172D" />
<rect x="23" y="26" width="1" height="1" fill="#3B1725" />
<rect x="11" y="27" width="2" height="2" fill="#14181E" />
<rect x="18" y="27" width="6" height="1" fill="#B4202A" />
<rect x="26" y="27" width="2" height="2" fill="#14181E" />
<rect x="10" y="28" width="1" height="5" fill="#14181E" />
<rect x="18" y="28" width="2" height="3" fill="#3B1725" />
<rect x="20" y="28" width="1" height="1" fill="#FFFC40" />
<rect x="21" y="28" width="2" height="4" fill="#B4202A" />
<rect x="23" y="28" width="1" height="1" fill="#FFFC40" />
<rect x="24" y="28" width="1" height="10" fill="#73172D" />
<rect x="28" y="28" width="1" height="6" fill="#14181E" />
<rect x="9" y="29" width="1" height="4" fill="#14181E" />
<rect x="11" y="29" width="1" height="1" fill="#14181E" />
<rect x="12" y="29" width="2" height="1" fill="#73172D" />
<rect x="20" y="29" width="1" height="3" fill="#3B1725" />
<rect x="23" y="29" width="1" height="3" fill="#3B1725" />
<rect x="25" y="29" width="1" height="9" fill="#B4202A" />
<rect x="26" y="29" width="1" height="1" fill="#73172D" />
<rect x="27" y="29" width="1" height="1" fill="#14181E" />
<rect x="29" y="29" width="1" height="5" fill="#14181E" />
<rect x="8" y="30" width="1" height="3" fill="#14181E" />
<rect x="11" y="30" width="1" height="1" fill="#73172D" />
<rect x="12" y="30" width="3" height="1" fill="#FA6A0A" />
<rect x="26" y="30" width="1" height="3" fill="#B4202A" />
<rect x="27" y="30" width="1" height="1" fill="#73172D" />
<rect x="37" y="30" width="8" height="2" fill="#14181E" />
<rect x="5" y="31" width="3" height="2" fill="#14181E" />
<rect x="11" y="31" width="1" height="2" fill="#14181E" />
<rect x="12" y="31" width="1" height="1" fill="#73172D" />
<rect x="13" y="31" width="3" height="3" fill="#FA6A0A" />
<rect x="18" y="31" width="1" height="2" fill="#73172D" />
<rect x="19" y="31" width="1" height="1" fill="#3B1725" />
<rect x="27" y="31" width="1" height="1" fill="#B4202A" />
<rect x="32" y="31" width="5" height="2" fill="#14181E" />
<rect x="45" y="31" width="1" height="3" fill="#14181E" />
<rect x="4" y="32" width="1" height="3" fill="#14181E" />
<rect x="12" y="32" width="1" height="1" fill="#14181E" />
<rect x="16" y="32" width="1" height="1" fill="#FA6A0A" />
<rect x="17" y="32" width="1" height="1" fill="#73172D" />
<rect x="19" y="32" width="5" height="1" fill="#73172D" />
<rect x="27" y="32" width="1" height="1" fill="#73172D" />
<rect x="30" y="32" width="2" height="2" fill="#14181E" />
<rect x="37" y="32" width="1" height="1" fill="#14181E" />
<rect x="38" y="32" width="1" height="1" fill="#FA6A0A" />
<rect x="39" y="32" width="4" height="1" fill="#FFFC40" />
<rect x="43" y="32" width="1" height="1" fill="#FA6A0A" />
<rect x="44" y="32" width="1" height="3" fill="#14181E" />
<rect x="3" y="33" width="1" height="3" fill="#14181E" />
<rect x="5" y="33" width="1" height="1" fill="#14181E" />
<rect x="6" y="33" width="5" height="1" fill="#FFFC40" />
<rect x="11" y="33" width="1" height="1" fill="#F9A31B" />
<rect x="12" y="33" width="1" height="1" fill="#73172D" />
<rect x="16" y="33" width="5" height="4" fill="#B4202A" />
<rect x="21" y="33" width="1" height="2" fill="#FA6A0A" />
<rect x="22" y="33" width="2" height="2" fill="#73172D" />
<rect x="26" y="33" width="1" height="6" fill="#73172D" />
<rect x="27" y="33" width="1" height="1" fill="#14181E" />
<rect x="32" y="33" width="1" height="1" fill="#14181E" />
<rect x="33" y="33" width="1" height="1" fill="#FA6A0A" />
<rect x="34" y="33" width="8" height="1" fill="#FFFC40" />
<rect x="42" y="33" width="1" height="1" fill="#FA6A0A" />
<rect x="43" y="33" width="1" height="3" fill="#14181E" />
<rect x="2" y="34" width="1" height="11" fill="#14181E" />
<rect x="5" y="34" width="1" height="1" fill="#FFFC40" />
<rect x="6" y="34" width="5" height="1" fill="#B4202A" />
<rect x="11" y="34" width="1" height="1" fill="#FFFC40" />
<rect x="12" y="34" width="1" height="1" fill="#F9A31B" />
<rect x="13" y="34" width="1" height="1" fill="#73172D" />
<rect x="14" y="34" width="2" height="1" fill="#FA6A0A" />
<rect x="27" y="34" width="2" height="1" fill="#FA6A0A" />
<rect x="29" y="34" width="1" height="1" fill="#73172D" />
<rect x="30" y="34" width="7" height="1" fill="#FFFC40" />
<rect x="37" y="34" width="1" height="1" fill="#FA6A0A" />
<rect x="38" y="34" width="2" height="1" fill="#FFFC40" />
<rect x="40" y="34" width="1" height="1" fill="#FA6A0A" />
<rect x="41" y="34" width="2" height="2" fill="#14181E" />
<rect x="1" y="35" width="1" height="9" fill="#14181E" />
<rect x="4" y="35" width="1" height="1" fill="#FFFC40" />
<rect x="5" y="35" width="3" height="2" fill="#B4202A" />
<rect x="8" y="35" width="1" height="2" fill="#F9A31B" />
<rect x="9" y="35" width="3" height="2" fill="#B4202A" />
<rect x="12" y="35" width="1" height="1" fill="#FFFC40" />
<rect x="13" y="35" width="1" height="1" fill="#F9A31B" />
<rect x="14" y="35" width="1" height="1" fill="#73172D" />
<rect x="15" y="35" width="1" height="3" fill="#FA6A0A" />
<rect x="21" y="35" width="1" height="3" fill="#B4202A" />
<rect x="22" y="35" width="1" height="4" fill="#FA6A0A" />
<rect x="23" y="35" width="1" height="3" fill="#73172D" />
<rect x="27" y="35" width="1" height="1" fill="#FA6A0A" />
<rect x="28" y="35" width="3" height="3" fill="#FFFC40" />
<rect x="31" y="35" width="1" height="1" fill="#FA6A0A" />
<rect x="32" y="35" width="6" height="1" fill="#FFFC40" />
<rect x="38" y="35" width="1" height="1" fill="#FA6A0A" />
<rect x="39" y="35" width="2" height="2" fill="#14181E" />
<rect x="3" y="36" width="1" height="7" fill="#FFFC40" />
<rect x="4" y="36" width="1" height="3" fill="#B4202A" />
<rect x="12" y="36" width="1" height="3" fill="#B4202A" />
<rect x="13" y="36" width="1" height="7" fill="#FFFC40" />
<rect x="14" y="36" width="1" height="7" fill="#F9A31B" />
<rect x="27" y="36" width="1" height="2" fill="#FFFC40" />
<rect x="31" y="36" width="2" height="1" fill="#FFFC40" />
<rect x="33" y="36" width="3" height="1" fill="#FA6A0A" />
<rect x="36" y="36" width="3" height="2" fill="#14181E" />
<rect x="41" y="36" width="1" height="1" fill="#14181E" />
<rect x="5" y="37" width="1" height="2" fill="#B4202A" />
<rect x="6" y="37" width="1" height="1" fill="#F9A31B" />
<rect x="7" y="37" width="3" height="1" fill="#FFFC40" />
<rect x="10" y="37" width="1" height="1" fill="#F9A31B" />
<rect x="11" y="37" width="1" height="2" fill="#B4202A" />
<rect x="16" y="37" width="1" height="1" fill="#FA6A0A" />
<rect x="17" y="37" width="4" height="1" fill="#B4202A" />
<rect x="31" y="37" width="1" height="1" fill="#FFFC40" />
<rect x="32" y="37" width="1" height="1" fill="#FA6A0A" />
<rect x="33" y="37" width="3" height="2" fill="#14181E" />
<rect x="39" y="37" width="1" height="1" fill="#14181E" />
<rect x="6" y="38" width="1" height="3" fill="#FFFC40" />
<rect x="7" y="38" width="3" height="3" fill="#F9A31B" />
<rect x="10" y="38" width="1" height="3" fill="#FFFC40" />
<rect x="15" y="38" width="1" height="5" fill="#B4202A" />
<rect x="16" y="38" width="1" height="1" fill="#73172D" />
<rect x="17" y="38" width="5" height="1" fill="#FA6A0A" />
<rect x="23" y="38" width="2" height="1" fill="#B4202A" />
<rect x="25" y="38" width="1" height="1" fill="#73172D" />
<rect x="27" y="38" width="1" height="1" fill="#FA6A0A" />
<rect x="28" y="38" width="2" height="1" fill="#FFFC40" />
<rect x="30" y="38" width="2" height="1" fill="#FA6A0A" />
<rect x="32" y="38" width="1" height="3" fill="#14181E" />
<rect x="36" y="38" width="1" height="1" fill="#14181E" />
<rect x="4" y="39" width="2" height="1" fill="#F9A31B" />
<rect x="11" y="39" width="2" height="1" fill="#F9A31B" />
<rect x="16" y="39" width="3" height="4" fill="#B4202A" />
<rect x="19" y="39" width="5" height="3" fill="#73172D" />
<rect x="24" y="39" width="3" height="2" fill="#B4202A" />
<rect x="27" y="39" width="2" height="1" fill="#FFFC40" />
<rect x="29" y="39" width="1" height="1" fill="#FA6A0A" />
<rect x="30" y="39" width="2" height="2" fill="#14181E" />
<rect x="33" y="39" width="1" height="1" fill="#14181E" />
<rect x="4" y="40" width="2" height="3" fill="#B4202A" />
<rect x="11" y="40" width="2" height="3" fill="#B4202A" />
<rect x="27" y="40" width="1" height="1" fill="#FA6A0A" />
<rect x="28" y="40" width="2" height="2" fill="#14181E" />
<rect x="6" y="41" width="1" height="1" fill="#F9A31B" />
<rect x="7" y="41" width="3" height="1" fill="#FFFC40" />
<rect x="10" y="41" width="1" height="1" fill="#F9A31B" />
<rect x="24" y="41" width="1" height="5" fill="#73172D" />
<rect x="25" y="41" width="2" height="2" fill="#B4202A" />
<rect x="27" y="41" width="1" height="6" fill="#14181E" />
<rect x="30" y="41" width="1" height="1" fill="#14181E" />
<rect x="6" y="42" width="2" height="3" fill="#B4202A" />
<rect x="8" y="42" width="1" height="2" fill="#F9A31B" />
<rect x="9" y="42" width="2" height="3" fill="#B4202A" />
<rect x="19" y="42" width="1" height="1" fill="#B4202A" />
<rect x="20" y="42" width="4" height="4" fill="#73172D" />
<rect x="28" y="42" width="1" height="4" fill="#14181E" />
<rect x="3" y="43" width="1" height="3" fill="#14181E" />
<rect x="4" y="43" width="1" height="1" fill="#FFFC40" />
<rect x="5" y="43" width="1" height="1" fill="#B4202A" />
<rect x="11" y="43" width="1" height="1" fill="#B4202A" />
<rect x="12" y="43" width="1" height="1" fill="#FFFC40" />
<rect x="13" y="43" width="1" height="1" fill="#F9A31B" />
<rect x="14" y="43" width="6" height="1" fill="#73172D" />
<rect x="25" y="43" width="1" height="2" fill="#73172D" />
<rect x="26" y="43" width="1" height="2" fill="#B4202A" />
<rect x="4" y="44" width="1" height="3" fill="#14181E" />
<rect x="5" y="44" width="1" height="1" fill="#FFFC40" />
<rect x="8" y="44" width="1" height="1" fill="#B4202A" />
<rect x="11" y="44" width="1" height="1" fill="#FFFC40" />
<rect x="12" y="44" width="1" height="1" fill="#F9A31B" />
<rect x="13" y="44" width="1" height="1" fill="#14181E" />
<rect x="14" y="44" width="1" height="1" fill="#73172D" />
<rect x="15" y="44" width="2" height="2" fill="#FA6A0A" />
<rect x="17" y="44" width="3" height="1" fill="#73172D" />
<rect x="5" y="45" width="1" height="3" fill="#14181E" />
<rect x="6" y="45" width="5" height="1" fill="#FFFC40" />
<rect x="11" y="45" width="1" height="1" fill="#F9A31B" />
<rect x="12" y="45" width="1" height="3" fill="#14181E" />
<rect x="13" y="45" width="1" height="1" fill="#060608" />
<rect x="14" y="45" width="1" height="3" fill="#14181E" />
<rect x="17" y="45" width="1" height="1" fill="#FA6A0A" />
<rect x="18" y="45" width="2" height="1" fill="#73172D" />
<rect x="25" y="45" width="1" height="1" fill="#B4202A" />
<rect x="26" y="45" width="1" height="3" fill="#14181E" />
<rect x="6" y="46" width="6" height="2" fill="#14181E" />
<rect x="13" y="46" width="1" height="2" fill="#14181E" />
<rect x="15" y="46" width="6" height="2" fill="#14181E" />
<rect x="21" y="46" width="2" height="1" fill="#FA6A0A" />
<rect x="23" y="46" width="1" height="2" fill="#73172D" />
<rect x="24" y="46" width="2" height="1" fill="#14181E" />
<rect x="21" y="47" width="1" height="1" fill="#FA6A0A" />
<rect x="22" y="47" width="1" height="1" fill="#73172D" />
<rect x="24" y="47" width="1" height="1" fill="#73172D" />
<rect x="25" y="47" width="1" height="1" fill="#14181E" />
</svg>