<svg width="48" height="48" viewBox="0 0 48 48" fill="none" xmlns="http://www.w3.org/2000/svg">
<path d="M22.9565 16H17.7391V18H22.9565V16Z" fill="#14181E"/>
<path d="M17.7391 17H16.6956V20H17.7391V17Z" fill="#14181E"/>
<path d="M24 17H22.9565V20H24V17Z" fill="#14181E"/>
<path d="M16.6956 18H15.6522V21H16.6956V18Z" fill="#14181E"/>
<path d="M18.7826 18H17.7391V19H18.7826V18Z" fill="#14181E"/>
<path d="M21.913 18H18.7826V20H21.913V18Z" fill="#73172D"/>
<path d="M22.9565 18H21.9131V19H22.9565V18Z" fill="#14181E"/>
<path d="M25.0435 18H24V26H25.0435V18Z" fill="#14181E"/>
<path d="M15.6522 19H14.6087V22H15.6522V19Z" fill="#14181E"/>
<path d="M18.7826 19H17.7391V21H18.7826V19Z" fill="#73172D"/>
<path d="M22.9565 19H21.9131V25H22.9565V19Z" fill="#73172D"/>
<path d="M26.087 19H25.0435V27H26.087V19Z" fill="#14181E"/>
<path d="M14.6087 20H13.5652V28H14.6087V20Z" fill="#14181E"/>
<path d="M17.7391 20H16.6956V31H17.7391V20Z" fill="#73172D"/>
<path d="M21.913 20H18.7826V25H21.913V20Z" fill="#3B1725"/>
<path d="M24 20H22.9565V24H24V20Z" fill="#73172D"/>
<path d="M13.5652 21H12.5217V27H13.5652V21Z" fill="#14181E"/>
<path d="M16.6956 21H15.6522V30H16.6956V21Z" fill="#73172D"/>
<path d="M18.7826 21H17.7391V24H18.7826V21Z" fill="#3B1725"/>
<path d="M15.6522 22H14.6087V29H15.6522V22Z" fill="#73172D"/>
<path d="M46.9565 22H42.7826V24H46.9565V22Z" fill="#14181E"/>
<path d="M31.3043 23H30.2609V24H31.3043V23Z" fill="#F9A31B"/>
<path d="M37.5652 23H36.5217V24H37.5652V23Z" fill="#F9A31B"/>
<path d="M42.7826 23H40.6956V25H42.7826V23Z" fill="#14181E"/>
<path d="M48 23H46.9565V26H48V23Z" fill="#14181E"/>
<path d="M18.7826 24H17.7391V25H18.7826V24Z" fill="#73172D"/>
<path d="M24 24H22.9565V25H24V24Z" fill="#3B1725"/>
<path d="M40.6957 24H38.6087V26H40.6957V24Z" fill="#14181E"/>
<path d="M43.8261 24H42.7826V25H43.8261V24Z" fill="#14181E"/>
<path d="M45.913 24H43.8261V25H45.913V24Z" fill="#F9A31B"/>
<path d="M46.9565 24H45.9131V27H46.9565V24Z" fill="#14181E"/>
<path d="M12.5217 25H10.4348V27H12.5217V25Z" fill="#14181E"/>
<path d="M24 25H17.7391V26H24V25Z" fill="#B4202A"/>
<path d="M28.1739 25H26.0869V27H28.1739V25Z" fill="#14181E"/>
<path d="M38.6087 25H36.5217V27H38.6087V25Z" fill="#14181E"/>
<path d="M41.7391 25H40.6956V26H41.7391V25Z" fill="#14181E"/>
<path d="M42.7826 25H41.7391V26H42.7826V25Z" fill="#F9A31B"/>
<path d="M43.8261 25H42.7826V26H43.8261V25Z" fill="#FFFC40"/>
<path d="M44.8696 25H43.8261V26H44.8696V25Z" fill="#F9A31B"/>
<path d="M45.913 25H44.8696V28H45.913V25Z" fill="#14181E"/>
<path d="M10.4348 26H9.3913V31H10.4348V26Z" fill="#14181E"/>
<path d="M18.7826 26H17.7391V29H18.7826V26Z" fill="#3B1725"/>
<path d="M19.8261 26H18.7826V27H19.8261V26Z" fill="#FFFC40"/>
<path d="M21.913 26H19.8261V30H21.913V26Z" fill="#B4202A"/>
<path d="M22.9565 26H21.9131V27H22.9565V26Z" fill="#FFFC40"/>
<path d="M24 26H22.9565V29H24V26Z" fill="#3B1725"/>
<path d="M25.0435 26H24V36H25.0435V26Z" fill="#73172D"/>
<path d="M29.2174 26H28.1739V29H29.2174V26Z" fill="#14181E"/>
<path d="M36.5217 26H34.4348V28H36.5217V26Z" fill="#14181E"/>
<path d="M39.6522 26H38.6087V27H39.6522V26Z" fill="#14181E"/>
<path d="M40.6956 26H39.6522V27H40.6956V26Z" fill="#F9A31B"/>
<path d="M42.7826 26H40.6956V27H42.7826V26Z" fill="#FFFC40"/>
<path d="M43.8261 26H42.7826V27H43.8261V26Z" fill="#F9A31B"/>
<path d="M44.8696 26H43.8261V29H44.8696V26Z" fill="#14181E"/>
<path d="M9.39132 27H8.34784V31H9.39132V27Z" fill="#14181E"/>
<path d="M11.4783 27H10.4348V28H11.4783V27Z" fill="#14181E"/>
<path d="M13.5652 27H11.4783V28H13.5652V27Z" fill="#73172D"/>
<path d="M19.8261 27H18.7826V30H19.8261V27Z" fill="#3B1725"/>
<path d="M22.9565 27H21.9131V30H22.9565V27Z" fill="#3B1725"/>
<path d="M26.087 27H25.0435V31H26.087V27Z" fill="#B4202A"/>
<path d="M27.1304 27H26.0869V28H27.1304V27Z" fill="#73172D"/>
<path d="M28.1739 27H27.1304V28H28.1739V27Z" fill="#14181E"/>
<path d="M30.2609 27H29.2174V31H30.2609V27Z" fill="#14181E"/>
<path d="M34.4348 27H32.3478V29H34.4348V27Z" fill="#14181E"/>
<path d="M37.5652 27H36.5217V28H37.5652V27Z" fill="#14181E"/>
<path d="M38.6087 27H37.5652V29H38.6087V27Z" fill="#F9A31B"/>
<path d="M41.7391 27H38.6087V28H41.7391V27Z" fill="#FFFC40"/>
<path d="M42.7826 27H41.7391V28H42.7826V27Z" fill="#F9A31B"/>
<path d="M43.8261 27H42.7826V30H43.8261V27Z" fill="#14181E"/>
<path d="M8.34783 28H7.30435V31H8.34783V28Z" fill="#14181E"/>
<path d="M11.4783 28H10.4348V29H11.4783V28Z" fill="#73172D"/>
<path d="M14.6087 28H11.4783V29H14.6087V28Z" fill="#FA6A0A"/>
<path d="M27.1304 28H26.0869V36H27.1304V28Z" fill="#B4202A"/>
<path d="M28.1739 28H27.1304V29H28.1739V28Z" fill="#73172D"/>
<path d="M32.3478 28H30.2609V30H32.3478V28Z" fill="#14181E"/>
<path d="M35.4783 28H34.4348V29H35.4783V28Z" fill="#14181E"/>
<path d="M36.5217 28H35.4783V29H36.5217V28Z" fill="#F9A31B"/>
<path d="M37.5652 28H36.5217V32H37.5652V28Z" fill="#FFFC40"/>
<path d="M40.6957 28H38.6087V29H40.6957V28Z" fill="#FFFC40"/>
<path d="M41.7391 28H40.6956V29H41.7391V28Z" fill="#F9A31B"/>
<path d="M42.7826 28H41.7391V31H42.7826V28Z" fill="#14181E"/>
<path d="M7.30435 29H4.17392V31H7.30435V29Z" fill="#14181E"/>
<path d="M11.4783 29H10.4348V31H11.4783V29Z" fill="#14181E"/>
<path d="M12.5217 29H11.4783V30H12.5217V29Z" fill="#73172D"/>
<path d="M15.6522 29H12.5217V31H15.6522V29Z" fill="#FA6A0A"/>
<path d="M18.7826 29H17.7391V31H18.7826V29Z" fill="#73172D"/>
<path d="M24 29H22.9565V33H24V29Z" fill="#73172D"/>
<path d="M28.1739 29H27.1304V31H28.1739V29Z" fill="#B4202A"/>
<path d="M29.2174 29H28.1739V32H29.2174V29Z" fill="#73172D"/>
<path d="M33.3913 29H32.3478V30H33.3913V29Z" fill="#14181E"/>
<path d="M34.4348 29H33.3913V30H34.4348V29Z" fill="#F9A31B"/>
<path d="M36.5217 29H34.4348V31H36.5217V29Z" fill="#FFFC40"/>
<path d="M39.6522 29H37.5652V30H39.6522V29Z" fill="#FFFC40"/>
<path d="M40.6956 29H39.6522V30H40.6956V29Z" fill="#F9A31B"/>
<path d="M41.7391 29H40.6956V32H41.7391V29Z" fill="#14181E"/>
<path d="M4.17391 30H3.13043V33H4.17391V30Z" fill="#14181E"/>
<path d="M12.5217 30H11.4783V31H12.5217V30Z" fill="#14181E"/>
<path d="M16.6956 30H15.6522V34H16.6956V30Z" fill="#FA6A0A"/>
<path d="M22.9565 30H18.7826V31H22.9565V30Z" fill="#73172D"/>
<path d="M31.3043 30H30.2609V31H31.3043V30Z" fill="#14181E"/>
<path d="M32.3478 30H31.3044V31H32.3478V30Z" fill="#F9A31B"/>
<path d="M34.4348 30H32.3478V34H34.4348V30Z" fill="#FFFC40"/>
<path d="M38.6087 30H37.5652V31H38.6087V30Z" fill="#FFFC40"/>
<path d="M39.6522 30H38.6087V31H39.6522V30Z" fill="#F9A31B"/>
<path d="M40.6956 30H39.6522V33H40.6956V30Z" fill="#14181E"/>
<path d="M3.13042 31H2.08694V34H3.13042V31Z" fill="#14181E"/>
<path d="M5.2174 31H4.17392V32H5.2174V31Z" fill="#14181E"/>
<path d="M10.4348 31H5.21738V32H10.4348V31Z" fill="#FFFC40"/>
<path d="M12.5217 31H10.4348V32H12.5217V31Z" fill="#F9A31B"/>
<path d="M13.5652 31H12.5217V32H13.5652V31Z" fill="#73172D"/>
<path d="M15.6522 31H13.5652V32H15.6522V31Z" fill="#FA6A0A"/>
<path d="M17.7391 31H16.6956V36H17.7391V31Z" fill="#FA6A0A"/>
<path d="M21.913 31H17.7391V36H21.913V31Z" fill="#B4202A"/>
<path d="M22.9565 31H21.9131V33H22.9565V31Z" fill="#FA6A0A"/>
<path d="M26.087 31H25.0435V36H26.087V31Z" fill="#73172D"/>
<path d="M28.1739 31H27.1304V37H28.1739V31Z" fill="#73172D"/>
<path d="M30.2609 31H29.2174V36H30.2609V31Z" fill="#FFFC40"/>
<path d="M31.3043 31H30.2609V33H31.3043V31Z" fill="#F9A31B"/>
<path d="M32.3478 31H31.3044V33H32.3478V31Z" fill="#FFFC40"/>
<path d="M35.4783 31H34.4348V32H35.4783V31Z" fill="#F9A31B"/>
<path d="M36.5217 31H35.4783V33H36.5217V31Z" fill="#FFFC40"/>
<path d="M38.6087 31H37.5652V32H38.6087V31Z" fill="#F9A31B"/>
<path d="M39.6522 31H38.6087V34H39.6522V31Z" fill="#14181E"/>
<path d="M2.08697 32H1.04349V43H2.08697V32Z" fill="#14181E"/>
<path d="M5.2174 32H4.17392V33H5.2174V32Z" fill="#FFFC40"/>
<path d="M10.4348 32H5.21738V33H10.4348V32Z" fill="#B4202A"/>
<path d="M11.4783 32H10.4348V33H11.4783V32Z" fill="#FFFC40"/>
<path d="M13.5652 32H11.4783V33H13.5652V32Z" fill="#F9A31B"/>
<path d="M14.6087 32H13.5652V33H14.6087V32Z" fill="#73172D"/>
<path d="M15.6522 32H14.6087V33H15.6522V32Z" fill="#FA6A0A"/>
<path d="M29.2174 32H28.1739V34H29.2174V32Z" fill="#FFFC40"/>
<path d="M35.4783 32H34.4348V34H35.4783V32Z" fill="#FFFC40"/>
<path d="M37.5652 32H36.5217V33H37.5652V32Z" fill="#F9A31B"/>
<path d="M38.6087 32H37.5652V35H38.6087V32Z" fill="#14181E"/>
<path d="M1.04348 33H0V42H1.04348V33Z" fill="#14181E"/>
<path d="M4.17391 33H3.13043V34H4.17391V33Z" fill="#FFFC40"/>
<path d="M7.30435 33H4.17392V35H7.30435V33Z" fill="#B4202A"/>
<path d="M8.34783 33H7.30435V35H8.34783V33Z" fill="#F9A31B"/>
<path d="M11.4783 33H8.34784V35H11.4783V33Z" fill="#B4202A"/>
<path d="M12.5217 33H11.4783V34H12.5217V33Z" fill="#FFFC40"/>
<path d="M14.6087 33H12.5217V34H14.6087V33Z" fill="#F9A31B"/>
<path d="M15.6522 33H14.6087V34H15.6522V33Z" fill="#73172D"/>
<path d="M22.9565 33H21.9131V36H22.9565V33Z" fill="#B4202A"/>
<path d="M24 33H22.9565V37H24V33Z" fill="#FA6A0A"/>
<path d="M31.3043 33H30.2609V37H31.3043V33Z" fill="#FFFC40"/>
<path d="M32.3478 33H31.3044V34H32.3478V33Z" fill="#F9A31B"/>
<path d="M36.5217 33H35.4783V34H36.5217V33Z" fill="#F9A31B"/>
<path d="M37.5652 33H36.5217V38H37.5652V33Z" fill="#14181E"/>
<path d="M3.13042 34H2.08694V41H3.13042V34Z" fill="#FFFC40"/>
<path d="M4.17391 34H3.13043V37H4.17391V34Z" fill="#B4202A"/>
<path d="M12.5217 34H11.4783V37H12.5217V34Z" fill="#B4202A"/>
<path d="M13.5652 34H12.5217V41H13.5652V34Z" fill="#FFFC40"/>
<path d="M15.6522 34H13.5652V41H15.6522V34Z" fill="#F9A31B"/>
<path d="M16.6956 34H15.6522V36H16.6956V34Z" fill="#73172D"/>
<path d="M29.2174 34H28.1739V35H29.2174V34Z" fill="#F9A31B"/>
<path d="M32.3478 34H31.3044V36H32.3478V34Z" fill="#FFFC40"/>
<path d="M35.4783 34H32.3478V35H35.4783V34Z" fill="#73172D"/>
<path d="M36.5217 34H35.4783V39H36.5217V34Z" fill="#14181E"/>
<path d="M5.2174 35H4.17392V37H5.2174V35Z" fill="#B4202A"/>
<path d="M6.26085 35H5.21738V36H6.26085V35Z" fill="#F9A31B"/>
<path d="M9.3913 35H6.26086V36H9.3913V35Z" fill="#FFFC40"/>
<path d="M10.4348 35H9.3913V36H10.4348V35Z" fill="#F9A31B"/>
<path d="M11.4783 35H10.4348V37H11.4783V35Z" fill="#B4202A"/>
<path d="M29.2174 35H28.1739V38H29.2174V35Z" fill="#73172D"/>
<path d="M35.4783 35H32.3478V36H35.4783V35Z" fill="#F9A31B"/>
<path d="M6.26085 36H5.21738V39H6.26085V36Z" fill="#FFFC40"/>
<path d="M9.3913 36H6.26086V39H9.3913V36Z" fill="#F9A31B"/>
<path d="M10.4348 36H9.3913V39H10.4348V36Z" fill="#FFFC40"/>
<path d="M16.6956 36H15.6522V45H16.6956V36Z" fill="#B4202A"/>
<path d="M17.7391 36H16.6956V37H17.7391V36Z" fill="#73172D"/>
<path d="M22.9565 36H17.7391V37H22.9565V36Z" fill="#FA6A0A"/>
<path d="M26.087 36H24V37H26.087V36Z" fill="#B4202A"/>
<path d="M27.1304 36H26.0869V37H27.1304V36Z" fill="#73172D"/>
<path d="M30.2609 36H29.2174V37H30.2609V36Z" fill="#F9A31B"/>
<path d="M34.4348 36H31.3044V37H34.4348V36Z" fill="#F9A31B"/>
<path d="M35.4783 36H34.4348V37H35.4783V36Z" fill="#73172D"/>
<path d="M5.21739 37H3.13043V38H5.21739V37Z" fill="#F9A31B"/>
<path d="M12.5217 37H10.4348V38H12.5217V37Z" fill="#F9A31B"/>
<path d="M20.8696 37H16.6956V38H20.8696V37Z" fill="#B4202A"/>
<path d="M25.0435 37H20.8696V45H25.0435V37Z" fill="#73172D"/>
<path d="M27.1304 37H25.0435V38H27.1304V37Z" fill="#B4202A"/>
<path d="M28.1739 37H27.1304V38H28.1739V37Z" fill="#14181E"/>
<path d="M30.2609 37H29.2174V39H30.2609V37Z" fill="#73172D"/>
<path d="M33.3913 37H30.2609V38H33.3913V37Z" fill="#F9A31B"/>
<path d="M34.4348 37H33.3913V38H34.4348V37Z" fill="#73172D"/>
<path d="M35.4783 37H34.4348V40H35.4783V37Z" fill="#14181E"/>
<path d="M5.21739 38H3.13043V41H5.21739V38Z" fill="#B4202A"/>
<path d="M12.5217 38H10.4348V41H12.5217V38Z" fill="#B4202A"/>
<path d="M19.8261 38H16.6956V41H19.8261V38Z" fill="#B4202A"/>
<path d="M20.8696 38H19.8261V45H20.8696V38Z" fill="#73172D"/>
<path d="M26.087 38H25.0435V47H26.087V38Z" fill="#73172D"/>
<path d="M28.1739 38H26.0869V40H28.1739V38Z" fill="#B4202A"/>
<path d="M29.2174 38H28.1739V39H29.2174V38Z" fill="#14181E"/>
<path d="M34.4348 38H30.2609V40H34.4348V38Z" fill="#14181E"/>
<path d="M6.26085 39H5.21738V40H6.26085V39Z" fill="#F9A31B"/>
<path d="M9.3913 39H6.26086V40H9.3913V39Z" fill="#FFFC40"/>
<path d="M10.4348 39H9.3913V40H10.4348V39Z" fill="#F9A31B"/>
<path d="M29.2174 39H28.1739V40H29.2174V39Z" fill="#73172D"/>
<path d="M30.2609 39H29.2174V45H30.2609V39Z" fill="#14181E"/>
<path d="M7.30433 40H5.21738V43H7.30433V40Z" fill="#B4202A"/>
<path d="M8.34783 40H7.30435V42H8.34783V40Z" fill="#F9A31B"/>
<path d="M10.4348 40H8.34784V43H10.4348V40Z" fill="#B4202A"/>
<path d="M27.1304 40H26.0869V44H27.1304V40Z" fill="#73172D"/>
<path d="M28.1739 40H27.1304V45H28.1739V40Z" fill="#B4202A"/>
<path d="M29.2174 40H28.1739V41H29.2174V40Z" fill="#2A120D"/>
<path d="M31.3043 40H30.2609V44H31.3043V40Z" fill="#14181E"/>
<path d="M3.13042 41H2.08694V44H3.13042V41Z" fill="#14181E"/>
<path d="M4.17391 41H3.13043V42H4.17391V41Z" fill="#FFFC40"/>
<path d="M5.2174 41H4.17392V42H5.2174V41Z" fill="#B4202A"/>
<path d="M11.4783 41H10.4348V42H11.4783V41Z" fill="#B4202A"/>
<path d="M12.5217 41H11.4783V42H12.5217V41Z" fill="#FFFC40"/>
<path d="M14.6087 41H12.5217V42H14.6087V41Z" fill="#F9A31B"/>
<path d="M15.6522 41H14.6087V45H15.6522V41Z" fill="#B4202A"/>
<path d="M18.7826 41H16.6956V45H18.7826V41Z" fill="#B4202A"/>
<path d="M19.8261 41H18.7826V44H19.8261V41Z" fill="#73172D"/>
<path d="M29.2174 41H28.1739V43H29.2174V41Z" fill="#B4202A"/>
<path d="M4.17391 42H3.13043V45H4.17391V42Z" fill="#14181E"/>
<path d="M5.2174 42H4.17392V43H5.2174V42Z" fill="#FFFC40"/>
<path d="M8.34783 42H7.30435V43H8.34783V42Z" fill="#B4202A"/>
<path d="M11.4783 42H10.4348V43H11.4783V42Z" fill="#FFFC40"/>
<path d="M13.5652 42H11.4783V43H13.5652V42Z" fill="#F9A31B"/>
<path d="M14.6087 42H13.5652V48H14.6087V42Z" fill="#14181E"/>
<path d="M5.2174 43H4.17392V46H5.2174V43Z" fill="#14181E"/>
<path d="M10.4348 43H5.21738V44H10.4348V43Z" fill="#FFFC40"/>
<path d="M12.5217 43H10.4348V44H12.5217V43Z" fill="#F9A31B"/>
<path d="M13.5652 43H12.5217V46H13.5652V43Z" fill="#14181E"/>
<path d="M29.2174 43H28.1739V46H29.2174V43Z" fill="#14181E"/>
<path d="M12.5217 44H5.21738V46H12.5217V44Z" fill="#14181E"/>
<path d="M19.8261 44H18.7826V45H19.8261V44Z" fill="#B4202A"/>
<path d="M27.1304 44H26.0869V45H27.1304V44Z" fill="#B4202A"/>
<path d="M15.6522 45H14.6087V46H15.6522V45Z" fill="#73172D"/>
<path d="M17.7391 45H15.6522V46H17.7391V45Z" fill="#FA6A0A"/>
<path d="M18.7826 45H17.7391V46H18.7826V45Z" fill="#73172D"/>
<path d="M22.9565 45H18.7826V47H22.9565V45Z" fill="#14181E"/>
<path d="M25.0435 45H22.9565V46H25.0435V45Z" fill="#FA6A0A"/>
<path d="M28.1739 45H26.0869V46H28.1739V45Z" fill="#14181E"/>
<path d="M16.6957 46H14.6087V48H16.6957V46Z" fill="#FA6A0A"/>
<path d="M17.7391 46H16.6956V47H17.7391V46Z" fill="#73172D"/>
<path d="M18.7826 46H17.7391V47H18.7826V46Z" fill="#14181E"/>
<path d="M24 46H22.9565V47H24V46Z" fill="#FA6A0A"/>
<path d="M25.0435 46H24V47H25.0435V46Z" fill="#73172D"/>
<path d="M27.1304 46H26.0869V47H27.1304V46Z" fill="#73172D"/>
<path d="M28.1739 46H27.1304V47H28.1739V46Z" fill="#14181E"/>
<path d="M18.7826 47H16.6956V48H18.7826V47Z" fill="#FA6A0A"/>
<path d="M19.8261 47H18.7826V48H19.8261V47Z" fill="#14181E"/>
</svg>
