<?xml version="1.0" encoding="UTF-8" ?>
<svg version="1.1" width="33" height="16" xmlns="http://www.w3.org/2000/svg" shape-rendering="crispEdges">
<rect x="10" y="0" width="13" height="6" fill="#2C7CDD" />
<rect x="9" y="1" width="1" height="8" fill="#2C7CDD" />
<rect x="23" y="1" width="2" height="1" fill="#2C7CDD" />
<rect x="8" y="2" width="1" height="7" fill="#2C7CDD" />
<rect x="23" y="2" width="1" height="4" fill="#2C7CDD" />
<rect x="24" y="2" width="1" height="1" fill="#265CA9" />
<rect x="7" y="3" width="1" height="6" fill="#2C7CDD" />
<rect x="24" y="3" width="1" height="3" fill="#2C7CDD" />
<rect x="6" y="4" width="1" height="5" fill="#2C7CDD" />
<rect x="25" y="4" width="2" height="1" fill="#2C7CDD" />
<rect x="25" y="5" width="1" height="1" fill="#265CA9" />
<rect x="26" y="5" width="1" height="2" fill="#14181E" />
<rect x="5" y="6" width="1" height="4" fill="#2C7CDD" />
<rect x="10" y="6" width="11" height="1" fill="#2C7CDD" />
<rect x="21" y="6" width="1" height="1" fill="#23B8E2" />
<rect x="22" y="6" width="2" height="1" fill="#FAF0D7" />
<rect x="24" y="6" width="2" height="7" fill="#14181E" />
<rect x="10" y="7" width="4" height="2" fill="#2C7CDD" />
<rect x="14" y="7" width="1" height="1" fill="#23B8E2" />
<rect x="15" y="7" width="2" height="1" fill="#FAF0D7" />
<rect x="17" y="7" width="1" height="1" fill="#23B8E2" />
<rect x="18" y="7" width="3" height="2" fill="#2C7CDD" />
<rect x="21" y="7" width="1" height="2" fill="#FAF0D7" />
<rect x="22" y="7" width="2" height="2" fill="#14181E" />
<rect x="4" y="8" width="1" height="2" fill="#2C7CDD" />
<rect x="14" y="8" width="1" height="2" fill="#FAF0D7" />
<rect x="15" y="8" width="2" height="2" fill="#14181E" />
<rect x="17" y="8" width="1" height="2" fill="#FAF0D7" />
<rect x="6" y="9" width="8" height="7" fill="#265CA9" />
<rect x="18" y="9" width="3" height="5" fill="#265CA9" />
<rect x="21" y="9" width="1" height="1" fill="#2C7CDD" />
<rect x="22" y="9" width="2" height="1" fill="#FAF0D7" />
<rect x="4" y="10" width="2" height="4" fill="#265CA9" />
<rect x="14" y="10" width="1" height="1" fill="#2C7CDD" />
<rect x="15" y="10" width="2" height="1" fill="#FAF0D7" />
<rect x="17" y="10" width="1" height="1" fill="#2C7CDD" />
<rect x="21" y="10" width="3" height="2" fill="#265CA9" />
<rect x="14" y="11" width="4" height="5" fill="#265CA9" />
<rect x="21" y="12" width="2" height="1" fill="#265CA9" />
<rect x="23" y="12" width="1" height="2" fill="#14181E" />
<rect x="21" y="13" width="1" height="1" fill="#265CA9" />
<rect x="22" y="13" width="1" height="2" fill="#14181E" />
<rect x="24" y="13" width="1" height="1" fill="#14181E" />
<rect x="5" y="14" width="1" height="1" fill="#265CA9" />
<rect x="18" y="14" width="2" height="1" fill="#265CA9" />
<rect x="20" y="14" width="2" height="1" fill="#14181E" />
<rect x="18" y="15" width="1" height="1" fill="#265CA9" />
</svg>