<?xml version="1.0" encoding="UTF-8" ?>
<svg version="1.1" width="16" height="16" xmlns="http://www.w3.org/2000/svg" shape-rendering="crispEdges">
<rect x="2" y="0" width="12" height="2" fill="#14181E" />
<rect x="1" y="1" width="1" height="5" fill="#14181E" />
<rect x="14" y="1" width="1" height="14" fill="#14181E" />
<rect x="2" y="2" width="1" height="7" fill="#14181E" />
<rect x="3" y="2" width="1" height="1" fill="#67657E" />
<rect x="4" y="2" width="8" height="1" fill="#838CAD" />
<rect x="12" y="2" width="1" height="1" fill="#67657E" />
<rect x="13" y="2" width="1" height="1" fill="#14181E" />
<rect x="15" y="2" width="1" height="12" fill="#14181E" />
<rect x="3" y="3" width="3" height="1" fill="#838CAD" />
<rect x="6" y="3" width="1" height="1" fill="#B2C7D1" />
<rect x="7" y="3" width="3" height="1" fill="#FAF0D7" />
<rect x="10" y="3" width="1" height="1" fill="#B2C7D1" />
<rect x="11" y="3" width="2" height="1" fill="#838CAD" />
<rect x="13" y="3" width="1" height="1" fill="#67657E" />
<rect x="3" y="4" width="1" height="1" fill="#67657E" />
<rect x="4" y="4" width="1" height="1" fill="#838CAD" />
<rect x="5" y="4" width="1" height="1" fill="#B2C7D1" />
<rect x="6" y="4" width="3" height="1" fill="#2A2644" />
<rect x="9" y="4" width="2" height="1" fill="#FAF0D7" />
<rect x="11" y="4" width="1" height="1" fill="#B2C7D1" />
<rect x="12" y="4" width="2" height="1" fill="#838CAD" />
<rect x="3" y="5" width="1" height="3" fill="#14181E" />
<rect x="4" y="5" width="1" height="1" fill="#B2C7D1" />
<rect x="5" y="5" width="1" height="5" fill="#FAF0D7" />
<rect x="6" y="5" width="1" height="2" fill="#2A2644" />
<rect x="7" y="5" width="1" height="1" fill="#FAF0D7" />
<rect x="8" y="5" width="2" height="4" fill="#2A2644" />
<rect x="10" y="5" width="2" height="1" fill="#FAF0D7" />
<rect x="12" y="5" width="1" height="1" fill="#B2C7D1" />
<rect x="13" y="5" width="1" height="7" fill="#838CAD" />
<rect x="4" y="6" width="1" height="3" fill="#FAF0D7" />
<rect x="7" y="6" width="1" height="2" fill="#2A2644" />
<rect x="10" y="6" width="1" height="2" fill="#2A2644" />
<rect x="11" y="6" width="2" height="1" fill="#FAF0D7" />
<rect x="1" y="7" width="1" height="9" fill="#14181E" />
<rect x="6" y="7" width="1" height="4" fill="#FAF0D7" />
<rect x="11" y="7" width="1" height="3" fill="#2A2644" />
<rect x="12" y="7" width="1" height="2" fill="#FAF0D7" />
<rect x="0" y="8" width="1" height="7" fill="#14181E" />
<rect x="3" y="8" width="1" height="1" fill="#B2C7D1" />
<rect x="7" y="8" width="1" height="4" fill="#FAF0D7" />
<rect x="10" y="8" width="1" height="1" fill="#FAF0D7" />
<rect x="2" y="9" width="1" height="1" fill="#B2C7D1" />
<rect x="3" y="9" width="1" height="1" fill="#838CAD" />
<rect x="4" y="9" width="1" height="2" fill="#B2C7D1" />
<rect x="8" y="9" width="1" height="3" fill="#FAF0D7" />
<rect x="9" y="9" width="2" height="1" fill="#2A2644" />
<rect x="12" y="9" width="1" height="1" fill="#B2C7D1" />
<rect x="2" y="10" width="1" height="1" fill="#67657E" />
<rect x="3" y="10" width="1" height="2" fill="#B2C7D1" />
<rect x="5" y="10" width="1" height="1" fill="#838CAD" />
<rect x="9" y="10" width="2" height="1" fill="#FAF0D7" />
<rect x="11" y="10" width="1" height="1" fill="#B2C7D1" />
<rect x="12" y="10" width="1" height="3" fill="#838CAD" />
<rect x="2" y="11" width="1" height="2" fill="#B2C7D1" />
<rect x="4" y="11" width="1" height="1" fill="#838CAD" />
<rect x="5" y="11" width="2" height="1" fill="#B2C7D1" />
<rect x="9" y="11" width="1" height="1" fill="#FAF0D7" />
<rect x="10" y="11" width="1" height="1" fill="#B2C7D1" />
<rect x="11" y="11" width="1" height="1" fill="#838CAD" />
<rect x="3" y="12" width="1" height="1" fill="#838CAD" />
<rect x="4" y="12" width="2" height="1" fill="#B2C7D1" />
<rect x="6" y="12" width="1" height="1" fill="#838CAD" />
<rect x="7" y="12" width="1" height="1" fill="#B2C7D1" />
<rect x="8" y="12" width="3" height="2" fill="#14181E" />
<rect x="11" y="12" width="1" height="1" fill="#67657E" />
<rect x="13" y="12" width="1" height="1" fill="#67657E" />
<rect x="2" y="13" width="1" height="1" fill="#67657E" />
<rect x="3" y="13" width="2" height="1" fill="#B2C7D1" />
<rect x="5" y="13" width="1" height="1" fill="#67657E" />
<rect x="6" y="13" width="1" height="1" fill="#B2C7D1" />
<rect x="7" y="13" width="1" height="3" fill="#14181E" />
<rect x="11" y="13" width="3" height="2" fill="#14181E" />
<rect x="2" y="14" width="5" height="2" fill="#14181E" />
<rect x="8" y="14" width="1" height="1" fill="#14181E" />
<rect x="10" y="14" width="1" height="1" fill="#14181E" />
</svg>