<?xml version="1.0" encoding="UTF-8" ?>
<svg version="1.1" width="48" height="48" xmlns="http://www.w3.org/2000/svg" shape-rendering="crispEdges">
<rect x="18" y="15" width="5" height="2" fill="#14181E" />
<rect x="17" y="16" width="1" height="3" fill="#14181E" />
<rect x="23" y="16" width="1" height="3" fill="#14181E" />
<rect x="16" y="17" width="1" height="3" fill="#14181E" />
<rect x="18" y="17" width="1" height="1" fill="#14181E" />
<rect x="19" y="17" width="1" height="1" fill="#3B1725" />
<rect x="20" y="17" width="1" height="2" fill="#73172D" />
<rect x="21" y="17" width="1" height="1" fill="#3B1725" />
<rect x="22" y="17" width="1" height="1" fill="#14181E" />
<rect x="24" y="17" width="1" height="8" fill="#14181E" />
<rect x="15" y="18" width="1" height="3" fill="#14181E" />
<rect x="18" y="18" width="1" height="1" fill="#3B1725" />
<rect x="19" y="18" width="1" height="1" fill="#73172D" />
<rect x="21" y="18" width="1" height="1" fill="#73172D" />
<rect x="22" y="18" width="1" height="1" fill="#3B1725" />
<rect x="25" y="18" width="1" height="8" fill="#14181E" />
<rect x="14" y="19" width="1" height="8" fill="#14181E" />
<rect x="17" y="19" width="2" height="1" fill="#73172D" />
<rect x="19" y="19" width="3" height="5" fill="#3B1725" />
<rect x="22" y="19" width="1" height="5" fill="#73172D" />
<rect x="23" y="19" width="1" height="1" fill="#3B1725" />
<rect x="13" y="20" width="1" height="6" fill="#14181E" />
<rect x="16" y="20" width="2" height="9" fill="#73172D" />
<rect x="18" y="20" width="1" height="3" fill="#3B1725" />
<rect x="23" y="20" width="1" height="3" fill="#73172D" />
<rect x="15" y="21" width="1" height="7" fill="#73172D" />
<rect x="18" y="23" width="1" height="1" fill="#73172D" />
<rect x="23" y="23" width="1" height="1" fill="#3B1725" />
<rect x="11" y="24" width="2" height="2" fill="#14181E" />
<rect x="18" y="24" width="6" height="1" fill="#B4202A" />
<rect x="26" y="24" width="1" height="3" fill="#14181E" />
<rect x="10" y="25" width="1" height="5" fill="#14181E" />
<rect x="18" y="25" width="2" height="3" fill="#3B1725" />
<rect x="20" y="25" width="1" height="1" fill="#FFFC40" />
<rect x="21" y="25" width="2" height="4" fill="#B4202A" />
<rect x="23" y="25" width="1" height="1" fill="#FFFC40" />
<rect x="24" y="25" width="1" height="10" fill="#73172D" />
<rect x="27" y="25" width="1" height="4" fill="#14181E" />
<rect x="9" y="26" width="1" height="4" fill="#14181E" />
<rect x="11" y="26" width="1" height="1" fill="#14181E" />
<rect x="12" y="26" width="2" height="1" fill="#73172D" />
<rect x="20" y="26" width="1" height="3" fill="#3B1725" />
<rect x="23" y="26" width="1" height="3" fill="#3B1725" />
<rect x="25" y="26" width="1" height="1" fill="#73172D" />
<rect x="28" y="26" width="1" height="4" fill="#14181E" />
<rect x="8" y="27" width="1" height="3" fill="#14181E" />
<rect x="11" y="27" width="1" height="1" fill="#73172D" />
<rect x="12" y="27" width="3" height="1" fill="#FA6A0A" />
<rect x="25" y="27" width="1" height="2" fill="#B4202A" />
<rect x="26" y="27" width="1" height="1" fill="#73172D" />
<rect x="37" y="27" width="8" height="2" fill="#14181E" />
<rect x="6" y="28" width="2" height="2" fill="#14181E" />
<rect x="11" y="28" width="1" height="2" fill="#14181E" />
<rect x="12" y="28" width="1" height="1" fill="#73172D" />
<rect x="13" y="28" width="3" height="2" fill="#FA6A0A" />
<rect x="18" y="28" width="1" height="2" fill="#73172D" />
<rect x="19" y="28" width="1" height="1" fill="#3B1725" />
<rect x="26" y="28" width="1" height="2" fill="#B4202A" />
<rect x="29" y="28" width="1" height="3" fill="#14181E" />
<rect x="32" y="28" width="5" height="2" fill="#14181E" />
<rect x="45" y="28" width="1" height="3" fill="#14181E" />
<rect x="5" y="29" width="1" height="3" fill="#14181E" />
<rect x="12" y="29" width="1" height="1" fill="#14181E" />
<rect x="16" y="29" width="1" height="3" fill="#FA6A0A" />
<rect x="17" y="29" width="1" height="1" fill="#73172D" />
<rect x="19" y="29" width="5" height="1" fill="#73172D" />
<rect x="25" y="29" width="1" height="6" fill="#73172D" />
<rect x="27" y="29" width="1" height="1" fill="#73172D" />
<rect x="30" y="29" width="2" height="2" fill="#14181E" />
<rect x="37" y="29" width="1" height="1" fill="#14181E" />
<rect x="38" y="29" width="2" height="1" fill="#FA6A0A" />
<rect x="40" y="29" width="3" height="1" fill="#FFFC40" />
<rect x="43" y="29" width="1" height="1" fill="#FA6A0A" />
<rect x="44" y="29" width="1" height="3" fill="#14181E" />
<rect x="4" y="30" width="1" height="3" fill="#14181E" />
<rect x="6" y="30" width="1" height="1" fill="#14181E" />
<rect x="7" y="30" width="7" height="1" fill="#FFFC40" />
<rect x="14" y="30" width="1" height="1" fill="#73172D" />
<rect x="15" y="30" width="1" height="1" fill="#FA6A0A" />
<rect x="17" y="30" width="5" height="5" fill="#B4202A" />
<rect x="22" y="30" width="1" height="2" fill="#FA6A0A" />
<rect x="23" y="30" width="1" height="2" fill="#73172D" />
<rect x="26" y="30" width="1" height="4" fill="#73172D" />
<rect x="27" y="30" width="1" height="1" fill="#B4202A" />
<rect x="28" y="30" width="1" height="1" fill="#73172D" />
<rect x="32" y="30" width="1" height="1" fill="#14181E" />
<rect x="33" y="30" width="1" height="1" fill="#FA6A0A" />
<rect x="34" y="30" width="8" height="1" fill="#FFFC40" />
<rect x="42" y="30" width="1" height="1" fill="#FA6A0A" />
<rect x="43" y="30" width="1" height="3" fill="#14181E" />
<rect x="3" y="31" width="1" height="11" fill="#14181E" />
<rect x="6" y="31" width="1" height="1" fill="#FFFC40" />
<rect x="7" y="31" width="7" height="1" fill="#B4202A" />
<rect x="14" y="31" width="1" height="1" fill="#FFFC40" />
<rect x="15" y="31" width="1" height="1" fill="#73172D" />
<rect x="27" y="31" width="2" height="5" fill="#FFFC40" />
<rect x="29" y="31" width="2" height="1" fill="#FA6A0A" />
<rect x="31" y="31" width="4" height="1" fill="#FFFC40" />
<rect x="35" y="31" width="1" height="1" fill="#FA6A0A" />
<rect x="36" y="31" width="4" height="1" fill="#FFFC40" />
<rect x="40" y="31" width="1" height="1" fill="#FA6A0A" />
<rect x="41" y="31" width="2" height="2" fill="#14181E" />
<rect x="2" y="32" width="1" height="9" fill="#14181E" />
<rect x="5" y="32" width="1" height="1" fill="#FFFC40" />
<rect x="6" y="32" width="4" height="2" fill="#B4202A" />
<rect x="10" y="32" width="1" height="2" fill="#F9A31B" />
<rect x="11" y="32" width="4" height="2" fill="#B4202A" />
<rect x="15" y="32" width="1" height="1" fill="#FFFC40" />
<rect x="16" y="32" width="1" height="1" fill="#73172D" />
<rect x="22" y="32" width="1" height="3" fill="#B4202A" />
<rect x="23" y="32" width="1" height="3" fill="#FA6A0A" />
<rect x="29" y="32" width="2" height="3" fill="#FFFC40" />
<rect x="31" y="32" width="1" height="1" fill="#FA6A0A" />
<rect x="32" y="32" width="6" height="1" fill="#FFFC40" />
<rect x="38" y="32" width="1" height="1" fill="#FA6A0A" />
<rect x="39" y="32" width="2" height="2" fill="#14181E" />
<rect x="4" y="33" width="1" height="7" fill="#FFFC40" />
<rect x="5" y="33" width="1" height="7" fill="#B4202A" />
<rect x="15" y="33" width="1" height="7" fill="#B4202A" />
<rect x="16" y="33" width="1" height="7" fill="#FFFC40" />
<rect x="31" y="33" width="4" height="1" fill="#FFFC40" />
<rect x="35" y="33" width="1" height="1" fill="#FA6A0A" />
<rect x="36" y="33" width="3" height="2" fill="#14181E" />
<rect x="41" y="33" width="1" height="1" fill="#14181E" />
<rect x="6" y="34" width="2" height="2" fill="#B4202A" />
<rect x="8" y="34" width="1" height="1" fill="#F9A31B" />
<rect x="9" y="34" width="3" height="1" fill="#FFFC40" />
<rect x="12" y="34" width="1" height="1" fill="#F9A31B" />
<rect x="13" y="34" width="2" height="2" fill="#B4202A" />
<rect x="26" y="34" width="1" height="1" fill="#FFFC40" />
<rect x="31" y="34" width="1" height="1" fill="#FFFC40" />
<rect x="32" y="34" width="1" height="1" fill="#FA6A0A" />
<rect x="33" y="34" width="3" height="2" fill="#14181E" />
<rect x="39" y="34" width="1" height="1" fill="#14181E" />
<rect x="8" y="35" width="1" height="3" fill="#FFFC40" />
<rect x="9" y="35" width="3" height="3" fill="#F9A31B" />
<rect x="12" y="35" width="1" height="3" fill="#FFFC40" />
<rect x="17" y="35" width="6" height="1" fill="#FA6A0A" />
<rect x="23" y="35" width="3" height="1" fill="#B4202A" />
<rect x="26" y="35" width="1" height="2" fill="#FA6A0A" />
<rect x="29" y="35" width="3" height="1" fill="#FA6A0A" />
<rect x="32" y="35" width="1" height="3" fill="#14181E" />
<rect x="36" y="35" width="1" height="1" fill="#14181E" />
<rect x="6" y="36" width="2" height="1" fill="#F9A31B" />
<rect x="13" y="36" width="2" height="1" fill="#F9A31B" />
<rect x="17" y="36" width="3" height="1" fill="#B4202A" />
<rect x="20" y="36" width="5" height="2" fill="#73172D" />
<rect x="25" y="36" width="1" height="3" fill="#B4202A" />
<rect x="27" y="36" width="3" height="1" fill="#FA6A0A" />
<rect x="30" y="36" width="2" height="2" fill="#14181E" />
<rect x="33" y="36" width="1" height="1" fill="#14181E" />
<rect x="6" y="37" width="2" height="4" fill="#B4202A" />
<rect x="13" y="37" width="2" height="4" fill="#B4202A" />
<rect x="17" y="37" width="2" height="2" fill="#B4202A" />
<rect x="19" y="37" width="1" height="8" fill="#73172D" />
<rect x="26" y="37" width="1" height="3" fill="#B4202A" />
<rect x="27" y="37" width="1" height="1" fill="#FA6A0A" />
<rect x="28" y="37" width="2" height="3" fill="#14181E" />
<rect x="8" y="38" width="1" height="1" fill="#F9A31B" />
<rect x="9" y="38" width="3" height="1" fill="#FFFC40" />
<rect x="12" y="38" width="1" height="1" fill="#F9A31B" />
<rect x="20" y="38" width="2" height="6" fill="#73172D" />
<rect x="22" y="38" width="3" height="1" fill="#B4202A" />
<rect x="27" y="38" width="1" height="7" fill="#14181E" />
<rect x="30" y="38" width="1" height="1" fill="#14181E" />
<rect x="8" y="39" width="2" height="3" fill="#B4202A" />
<rect x="10" y="39" width="1" height="2" fill="#F9A31B" />
<rect x="11" y="39" width="2" height="3" fill="#B4202A" />
<rect x="17" y="39" width="1" height="6" fill="#B4202A" />
<rect x="18" y="39" width="1" height="6" fill="#73172D" />
<rect x="22" y="39" width="4" height="4" fill="#73172D" />
<rect x="4" y="40" width="1" height="3" fill="#14181E" />
<rect x="5" y="40" width="1" height="1" fill="#FFFC40" />
<rect x="15" y="40" width="1" height="1" fill="#FFFC40" />
<rect x="16" y="40" width="1" height="5" fill="#B4202A" />
<rect x="26" y="40" width="1" height="2" fill="#73172D" />
<rect x="28" y="40" width="1" height="4" fill="#14181E" />
<rect x="5" y="41" width="1" height="3" fill="#14181E" />
<rect x="6" y="41" width="1" height="1" fill="#FFFC40" />
<rect x="7" y="41" width="1" height="1" fill="#B4202A" />
<rect x="10" y="41" width="1" height="1" fill="#B4202A" />
<rect x="13" y="41" width="1" height="1" fill="#B4202A" />
<rect x="14" y="41" width="1" height="1" fill="#FFFC40" />
<rect x="15" y="41" width="1" height="4" fill="#B4202A" />
<rect x="6" y="42" width="1" height="3" fill="#14181E" />
<rect x="7" y="42" width="7" height="1" fill="#FFFC40" />
<rect x="14" y="42" width="1" height="1" fill="#14181E" />
<rect x="26" y="42" width="1" height="1" fill="#B4202A" />
<rect x="7" y="43" width="7" height="1" fill="#14181E" />
<rect x="14" y="43" width="1" height="2" fill="#B4202A" />
<rect x="22" y="43" width="3" height="1" fill="#73172D" />
<rect x="25" y="43" width="1" height="1" fill="#B4202A" />
<rect x="26" y="43" width="1" height="3" fill="#14181E" />
<rect x="7" y="44" width="6" height="1" fill="#14181E" />
<rect x="13" y="44" width="1" height="1" fill="#B4202A" />
<rect x="20" y="44" width="1" height="1" fill="#73172D" />
<rect x="21" y="44" width="1" height="2" fill="#14181E" />
<rect x="22" y="44" width="2" height="1" fill="#FA6A0A" />
<rect x="24" y="44" width="1" height="2" fill="#73172D" />
<rect x="25" y="44" width="1" height="1" fill="#14181E" />
<rect x="10" y="45" width="2" height="2" fill="#14181E" />
<rect x="12" y="45" width="1" height="1" fill="#73172D" />
<rect x="13" y="45" width="2" height="1" fill="#FA6A0A" />
<rect x="15" y="45" width="1" height="1" fill="#73172D" />
<rect x="16" y="45" width="5" height="2" fill="#14181E" />
<rect x="22" y="45" width="1" height="1" fill="#FA6A0A" />
<rect x="23" y="45" width="1" height="1" fill="#73172D" />
<rect x="25" y="45" width="1" height="1" fill="#73172D" />
<rect x="12" y="46" width="2" height="2" fill="#FA6A0A" />
<rect x="14" y="46" width="1" height="1" fill="#73172D" />
<rect x="15" y="46" width="1" height="1" fill="#14181E" />
<rect x="11" y="47" width="1" height="1" fill="#14181E" />
<rect x="14" y="47" width="2" height="1" fill="#FA6A0A" />
<rect x="16" y="47" width="1" height="1" fill="#14181E" />
</svg>